<svg xmlns="http://www.w3.org/2000/svg" width="64" height="64" fill="none"><g filter="url(#a)"><mask id="b" width="49" height="49" x="8" y="8" maskUnits="userSpaceOnUse" style="mask-type:alpha"><path fill="#000" d="M16.101 14.028a23.9 23.9 0 0 1 15.904-6.025c13.255 0 24 10.745 24 24 0 5.1-1.59 9.828-4.303 13.716l-6.497-13.716h6c0-10.604-8.596-19.2-19.2-19.2a19.14 19.14 0 0 0-13.742 5.79zm31.808 35.95a23.9 23.9 0 0 1-15.904 6.025c-13.255 0-24-10.745-24-24 0-5.1 1.59-9.828 4.303-13.716l6.497 13.716h-6c0 10.604 8.596 19.2 19.2 19.2a19.14 19.14 0 0 0 13.741-5.79zM23.605 36.802h13.2a1.2 1.2 0 1 0 0-2.4h-9.6a6 6 0 1 1 0-12h2.4v-2.4h4.8v2.4h6v4.8h-13.2a1.2 1.2 0 1 0 0 2.4h9.6a6 6 0 1 1 0 12h-2.4v2.4h-4.8v-2.4h-6z"/></mask><g mask="url(#b)"><path fill="#256AFE" d="M0 0h64v64H0z"/><mask id="c" width="64" height="64" x="0" y="0" maskUnits="userSpaceOnUse" style="mask-type:alpha"><path fill="#256AFE" d="M0 0h64v64H0z"/></mask><g mask="url(#c)"><g filter="url(#d)" style="mix-blend-mode:overlay"><ellipse cx="71.5" cy="50.5" fill="#B8CEFF" rx="25.5" ry="31.5"/></g><g filter="url(#e)" opacity=".7"><ellipse cx="2.286" cy="3.706" fill="#B083FE" rx="23.184" ry="31.326"/></g><g filter="url(#f)" style="mix-blend-mode:overlay"><ellipse cx="26.5" cy="3.5" fill="#B083FE" rx="47.5" ry="24.5"/></g><g filter="url(#g)" style="mix-blend-mode:overlay"><ellipse cx="-10.5" cy="26" fill="#EBF2FF" rx="31.5" ry="26"/></g><g filter="url(#h)" style="mix-blend-mode:overlay"><ellipse cx="29.5" cy="-14" fill="#EBF2FF" rx="31.5" ry="24"/></g><g filter="url(#i)" style="mix-blend-mode:overlay"><ellipse cx="48" cy="71.748" fill="#EBF2FF" rx="26.449" ry="12.463"/></g><g filter="url(#j)" style="mix-blend-mode:overlay"><ellipse cx="64.653" cy="70.737" fill="#fff" rx="9.796" ry="13.474"/></g></g></g></g><defs><filter id="a" width="72" height="72" x="-4" y="-2" color-interpolation-filters="sRGB" filterUnits="userSpaceOnUse"><feFlood flood-opacity="0" result="BackgroundImageFix"/><feColorMatrix in="SourceAlpha" result="hardAlpha" values="0 0 0 0 0 0 0 0 0 0 0 0 0 0 0 0 0 0 127 0"/><feOffset dy="2"/><feGaussianBlur stdDeviation="2"/><feComposite in2="hardAlpha" operator="out"/><feColorMatrix values="0 0 0 0 0 0 0 0 0 0 0 0 0 0 0 0 0 0 0.1 0"/><feBlend in2="BackgroundImageFix" result="effect1_dropShadow_726_158167"/><feBlend in="SourceGraphic" in2="effect1_dropShadow_726_158167" result="shape"/></filter><filter id="d" width="100.8" height="112.8" x="21.1" y="-5.9" color-interpolation-filters="sRGB" filterUnits="userSpaceOnUse"><feFlood flood-opacity="0" result="BackgroundImageFix"/><feBlend in="SourceGraphic" in2="BackgroundImageFix" result="shape"/><feGaussianBlur result="effect1_foregroundBlur_726_158167" stdDeviation="12.45"/></filter><filter id="e" width="140.567" height="156.853" x="-67.998" y="-74.721" color-interpolation-filters="sRGB" filterUnits="userSpaceOnUse"><feFlood flood-opacity="0" result="BackgroundImageFix"/><feBlend in="SourceGraphic" in2="BackgroundImageFix" result="shape"/><feGaussianBlur result="effect1_foregroundBlur_726_158167" stdDeviation="23.55"/></filter><filter id="f" width="163.6" height="117.6" x="-55.3" y="-55.3" color-interpolation-filters="sRGB" filterUnits="userSpaceOnUse"><feFlood flood-opacity="0" result="BackgroundImageFix"/><feBlend in="SourceGraphic" in2="BackgroundImageFix" result="shape"/><feGaussianBlur result="effect1_foregroundBlur_726_158167" stdDeviation="17.15"/></filter><filter id="g" width="155.8" height="144.8" x="-88.4" y="-46.4" color-interpolation-filters="sRGB" filterUnits="userSpaceOnUse"><feFlood flood-opacity="0" result="BackgroundImageFix"/><feBlend in="SourceGraphic" in2="BackgroundImageFix" result="shape"/><feGaussianBlur result="effect1_foregroundBlur_726_158167" stdDeviation="23.2"/></filter><filter id="h" width="93.2" height="78.2" x="-17.1" y="-53.1" color-interpolation-filters="sRGB" filterUnits="userSpaceOnUse"><feFlood flood-opacity="0" result="BackgroundImageFix"/><feBlend in="SourceGraphic" in2="BackgroundImageFix" result="shape"/><feGaussianBlur result="effect1_foregroundBlur_726_158167" stdDeviation="7.55"/></filter><filter id="i" width="86.898" height="58.926" x="4.551" y="42.285" color-interpolation-filters="sRGB" filterUnits="userSpaceOnUse"><feFlood flood-opacity="0" result="BackgroundImageFix"/><feBlend in="SourceGraphic" in2="BackgroundImageFix" result="shape"/><feGaussianBlur result="effect1_foregroundBlur_726_158167" stdDeviation="8.5"/></filter><filter id="j" width="97.192" height="104.547" x="16.057" y="18.464" color-interpolation-filters="sRGB" filterUnits="userSpaceOnUse"><feFlood flood-opacity="0" result="BackgroundImageFix"/><feBlend in="SourceGraphic" in2="BackgroundImageFix" result="shape"/><feGaussianBlur result="effect1_foregroundBlur_726_158167" stdDeviation="19.4"/></filter></defs></svg>